<?xml version="1.0" encoding="UTF-8"?>
<svg xmlns="http://www.w3.org/2000/svg" xmlns:xlink="http://www.w3.org/1999/xlink" width="25px" height="25px" viewBox="0 0 25 25" version="1.1">
<g id="surface1">
<path style=" stroke:none;fill-rule:nonzero;fill:rgb(0%,0%,0%);fill-opacity:1;" d="M 13.011719 8.851562 C 12.851562 8.863281 12.710938 8.914062 12.597656 8.996094 C 12.480469 9.082031 12.386719 9.1875 12.308594 9.316406 C 12.234375 9.441406 12.179688 9.585938 12.148438 9.746094 C 12.117188 9.910156 12.109375 10.074219 12.128906 10.242188 C 12.148438 10.460938 12.210938 10.613281 12.316406 10.699219 C 12.417969 10.789062 12.546875 10.824219 12.703125 10.808594 C 12.796875 10.800781 12.882812 10.785156 12.949219 10.765625 C 13.015625 10.746094 13.09375 10.71875 13.171875 10.683594 L 13.3125 8.859375 C 13.257812 8.851562 13.207031 8.84375 13.160156 8.84375 C 13.113281 8.84375 13.066406 8.84375 13.011719 8.851562 Z M 1.730469 7.300781 C 5.199219 10.765625 8.664062 14.234375 12.128906 17.695312 C 12.421875 17.988281 12.554688 17.988281 12.851562 17.691406 L 22.683594 7.863281 C 22.921875 7.621094 23.253906 7.417969 23.371094 7.128906 C 23.492188 6.828125 23.410156 6.445312 23.410156 6.09375 C 23.414062 5.40625 23.074219 5.074219 22.386719 5.074219 L 2.5625 5.074219 C 1.910156 5.074219 1.570312 5.421875 1.566406 6.078125 C 1.566406 6.351562 1.578125 6.628906 1.5625 6.902344 C 1.554688 7.070312 1.613281 7.183594 1.730469 7.300781 Z M 9.675781 9.316406 C 9.792969 8.863281 9.996094 8.441406 10.28125 8.054688 C 10.574219 7.667969 10.957031 7.339844 11.433594 7.066406 C 11.914062 6.796875 12.496094 6.628906 13.179688 6.558594 C 13.546875 6.523438 13.898438 6.542969 14.234375 6.609375 C 14.570312 6.675781 14.867188 6.796875 15.128906 6.976562 C 15.390625 7.15625 15.609375 7.390625 15.78125 7.683594 C 15.953125 7.980469 16.058594 8.332031 16.101562 8.746094 C 16.128906 9.046875 16.109375 9.347656 16.039062 9.648438 C 15.96875 9.953125 15.855469 10.226562 15.699219 10.476562 C 15.542969 10.722656 15.34375 10.933594 15.101562 11.101562 C 14.863281 11.273438 14.589844 11.371094 14.28125 11.40625 C 13.929688 11.441406 13.65625 11.375 13.453125 11.210938 C 13.316406 11.296875 13.171875 11.375 13.015625 11.445312 C 12.859375 11.515625 12.664062 11.5625 12.421875 11.585938 C 12.265625 11.601562 12.117188 11.589844 11.980469 11.558594 C 11.839844 11.527344 11.71875 11.464844 11.605469 11.378906 C 11.496094 11.289062 11.402344 11.171875 11.328125 11.027344 C 11.253906 10.882812 11.203125 10.707031 11.183594 10.5 C 11.152344 10.171875 11.179688 9.863281 11.261719 9.582031 C 11.34375 9.300781 11.46875 9.050781 11.640625 8.832031 C 11.808594 8.617188 12.011719 8.441406 12.25 8.308594 C 12.488281 8.171875 12.746094 8.089844 13.03125 8.0625 C 13.25 8.042969 13.464844 8.039062 13.675781 8.050781 C 13.890625 8.058594 14.09375 8.089844 14.28125 8.140625 L 14.054688 10.640625 C 14.109375 10.671875 14.1875 10.683594 14.300781 10.675781 C 14.480469 10.65625 14.632812 10.589844 14.761719 10.46875 C 14.890625 10.351562 14.996094 10.203125 15.074219 10.023438 C 15.152344 9.84375 15.203125 9.652344 15.234375 9.441406 C 15.261719 9.230469 15.265625 9.027344 15.246094 8.828125 C 15.191406 8.273438 14.984375 7.863281 14.617188 7.601562 C 14.25 7.339844 13.761719 7.238281 13.148438 7.296875 C 12.675781 7.34375 12.261719 7.464844 11.90625 7.660156 C 11.550781 7.859375 11.261719 8.105469 11.039062 8.402344 C 10.8125 8.699219 10.648438 9.03125 10.546875 9.398438 C 10.449219 9.765625 10.417969 10.140625 10.453125 10.523438 C 10.484375 10.871094 10.566406 11.164062 10.695312 11.398438 C 10.824219 11.636719 10.984375 11.824219 11.175781 11.960938 C 11.371094 12.101562 11.585938 12.195312 11.835938 12.246094 C 12.078125 12.292969 12.335938 12.304688 12.609375 12.28125 C 12.859375 12.253906 13.089844 12.21875 13.300781 12.167969 C 13.511719 12.113281 13.699219 12.046875 13.863281 11.960938 C 13.917969 12.066406 13.96875 12.171875 14.019531 12.28125 C 14.066406 12.390625 14.113281 12.496094 14.152344 12.609375 C 14.070312 12.660156 13.96875 12.710938 13.851562 12.753906 C 13.734375 12.800781 13.609375 12.84375 13.46875 12.878906 C 13.332031 12.917969 13.183594 12.949219 13.03125 12.976562 C 12.875 13.003906 12.71875 13.023438 12.566406 13.039062 C 12.191406 13.074219 11.835938 13.050781 11.492188 12.976562 C 11.148438 12.902344 10.839844 12.765625 10.566406 12.574219 C 10.296875 12.378906 10.074219 12.121094 9.894531 11.800781 C 9.71875 11.484375 9.609375 11.09375 9.5625 10.636719 C 9.523438 10.210938 9.5625 9.769531 9.675781 9.316406 Z M 18.472656 13.976562 C 18.414062 13.921875 18.359375 13.867188 18.257812 13.769531 C 18.199219 13.84375 18.15625 13.925781 18.09375 13.984375 C 16.59375 15.484375 15.097656 16.984375 13.597656 18.484375 C 12.894531 19.183594 12.085938 19.1875 11.386719 18.488281 C 9.890625 16.992188 8.390625 15.492188 6.890625 13.992188 C 6.828125 13.929688 6.78125 13.851562 6.71875 13.769531 C 6.648438 13.835938 6.621094 13.855469 6.601562 13.878906 C 4.964844 15.511719 3.328125 17.148438 1.691406 18.78125 C 1.542969 18.929688 1.550781 19.082031 1.59375 19.246094 C 1.710938 19.691406 2.042969 19.921875 2.558594 19.921875 L 22.410156 19.921875 C 22.476562 19.921875 22.539062 19.925781 22.605469 19.917969 C 22.921875 19.878906 23.175781 19.734375 23.3125 19.4375 C 23.449219 19.136719 23.484375 18.964844 23.199219 18.683594 C 21.613281 17.128906 20.046875 15.550781 18.472656 13.976562 Z M 1.585938 17.292969 L 5.835938 13.042969 C 4.417969 11.613281 2.996094 10.183594 1.585938 8.757812 Z M 23.390625 17.265625 L 23.390625 8.753906 L 19.136719 13.007812 Z M 23.390625 17.265625 "/>
</g>
</svg>
