<?xml version="1.0" encoding="UTF-8"?>
<svg xmlns="http://www.w3.org/2000/svg" xmlns:xlink="http://www.w3.org/1999/xlink" width="25px" height="25px" viewBox="0 0 25 25" version="1.1">
<g id="surface1">
<path style=" stroke:none;fill-rule:nonzero;fill:rgb(0%,0%,0%);fill-opacity:1;" d="M 18.460938 1.628906 C 16.503906 2.851562 14.488281 1.816406 13.035156 1.628906 C 6.617188 0.785156 4.578125 8.269531 9.253906 11.273438 C 8.050781 11.894531 8.128906 15.070312 9.417969 15.523438 C 6.382812 15.867188 5.816406 20.148438 7.449219 21.898438 C 9.429688 24.023438 15.523438 23.878906 17.3125 21.898438 C 18.5625 20.511719 18.734375 17.65625 17.640625 16.34375 C 16.640625 15.140625 11.644531 14.960938 11.71875 13.074219 C 11.773438 11.753906 13.582031 11.960938 14.679688 11.4375 C 16.746094 10.449219 17.953125 7.496094 17.144531 5.226562 C 17.609375 5.136719 18 4.984375 18.460938 4.898438 Z M 10.570312 8.496094 C 8.164062 3.253906 16.101562 3.628906 13.691406 8.496094 C 12.902344 9.078125 11.347656 9.136719 10.570312 8.496094 Z M 15.007812 18.789062 C 15.21875 21.140625 10.460938 21.246094 9.910156 19.609375 C 9.449219 18.230469 10.023438 17.835938 11.386719 17.484375 C 12.9375 17.078125 14.863281 17.21875 15.007812 18.789062 Z M 15.007812 18.789062 "/>
</g>
</svg>
