<?xml version="1.0" encoding="UTF-8"?>
<svg xmlns="http://www.w3.org/2000/svg" xmlns:xlink="http://www.w3.org/1999/xlink" width="25px" height="25px" viewBox="0 0 25 25" version="1.1">
<g id="surface1">
<path style=" stroke:none;fill-rule:nonzero;fill:rgb(0%,0%,0%);fill-opacity:1;" d="M 21.761719 1.558594 L 3.238281 1.558594 C 2.351562 1.558594 1.628906 2.261719 1.628906 3.128906 L 1.628906 21.871094 C 1.628906 22.738281 2.351562 23.4375 3.238281 23.4375 L 21.761719 23.4375 C 22.648438 23.4375 23.371094 22.738281 23.371094 21.871094 L 23.371094 3.128906 C 23.367188 2.261719 22.648438 1.558594 21.761719 1.558594 Z M 8.21875 19.871094 L 4.9375 19.871094 L 4.9375 9.996094 L 8.21875 9.996094 Z M 6.578125 8.648438 L 6.558594 8.648438 C 5.453125 8.648438 4.746094 7.890625 4.746094 6.941406 C 4.746094 5.96875 5.480469 5.234375 6.601562 5.234375 C 7.726562 5.234375 8.414062 5.96875 8.433594 6.941406 C 8.433594 7.890625 7.726562 8.648438 6.578125 8.648438 Z M 20.058594 19.871094 L 16.773438 19.871094 L 16.773438 14.585938 C 16.773438 13.261719 16.300781 12.355469 15.113281 12.355469 C 14.203125 12.355469 13.664062 12.964844 13.425781 13.554688 C 13.34375 13.765625 13.324219 14.0625 13.324219 14.355469 L 13.324219 19.875 L 10.039062 19.875 C 10.039062 19.875 10.078125 10.925781 10.039062 9.996094 L 13.324219 9.996094 L 13.324219 11.394531 C 13.757812 10.722656 14.539062 9.765625 16.28125 9.765625 C 18.441406 9.765625 20.058594 11.175781 20.058594 14.210938 Z M 20.058594 19.871094 "/>
</g>
</svg>
