<?xml version="1.0" encoding="UTF-8"?>
<svg xmlns="http://www.w3.org/2000/svg" xmlns:xlink="http://www.w3.org/1999/xlink" width="25px" height="25px" viewBox="0 0 25 25" version="1.1">
<g id="surface1">
<path style=" stroke:none;fill-rule:nonzero;fill:rgb(0%,0%,0%);fill-opacity:1;" d="M 12.699219 1.5625 C 6.8125 1.5625 2.042969 6.335938 2.042969 12.21875 C 2.042969 14.230469 2.601562 16.113281 3.570312 17.722656 L 1.648438 23.4375 L 7.546875 21.546875 C 9.074219 22.390625 10.828125 22.875 12.699219 22.875 C 18.582031 22.875 23.351562 18.101562 23.351562 12.21875 C 23.351562 6.335938 18.582031 1.5625 12.699219 1.5625 Z M 17.917969 15.910156 C 17.703125 16.519531 16.84375 17.027344 16.160156 17.171875 C 15.691406 17.273438 15.078125 17.351562 13.019531 16.5 C 10.386719 15.410156 8.691406 12.734375 8.558594 12.558594 C 8.433594 12.386719 7.496094 11.140625 7.496094 9.859375 C 7.496094 8.574219 8.148438 7.945312 8.414062 7.675781 C 8.628906 7.453125 8.988281 7.359375 9.328125 7.359375 C 9.441406 7.359375 9.539062 7.363281 9.628906 7.367188 C 9.890625 7.378906 10.023438 7.394531 10.199219 7.808594 C 10.414062 8.328125 10.941406 9.613281 11.003906 9.746094 C 11.066406 9.878906 11.128906 10.058594 11.039062 10.234375 C 10.953125 10.414062 10.882812 10.488281 10.75 10.644531 C 10.617188 10.796875 10.492188 10.914062 10.359375 11.074219 C 10.238281 11.21875 10.101562 11.371094 10.253906 11.636719 C 10.40625 11.890625 10.933594 12.753906 11.710938 13.441406 C 12.710938 14.328125 13.523438 14.613281 13.8125 14.738281 C 14.027344 14.828125 14.289062 14.804688 14.445312 14.636719 C 14.644531 14.421875 14.890625 14.0625 15.144531 13.710938 C 15.324219 13.457031 15.550781 13.425781 15.789062 13.515625 C 16.03125 13.597656 17.308594 14.234375 17.574219 14.363281 C 17.835938 14.496094 18.011719 14.558594 18.074219 14.667969 C 18.136719 14.777344 18.136719 15.300781 17.917969 15.910156 Z M 17.917969 15.910156 "/>
</g>
</svg>
